# File created by Blade
# Date/Time:  Tue Sep 30 19:33:40 2014
#---------------------------------------------------------
:version 1.10
:name HOM
:units
  mass 1.0
  length 1.000000
  angle deg
:documentation
     Acclaim Skeleton File
:root
   axis xyz
   order TX TY TZ RX RY RZ
   position 0.000000 0.000000 0.000000
   orientation 0 0 0
:bonedata
   begin
      id 1
      name Spine_dum
      direction 0.000000 1.000000 0.000000
      length 3.241213
      axis 0.0 0.0 0.0 xyz
   end
   begin
      id 2
      name LeftUpLeg_dum
      direction 1.000000 0.000000 0.000000
      length 3.434019
      axis 0.0 0.0 0.0 xyz
   end
   begin
      id 3
      name RightUpLeg_dum
      direction -1.000000 0.000000 0.000000
      length 3.434019
      axis 0.0 0.0 0.0 xyz
   end
   begin
      id 4
      name Spine
      direction 0.000000 1.000000 0.000000
      length 0.000000
      axis 0.0 0.0 0.0 xyz
      dof rx ry rz
   end
   begin
      id 5
      name Spine_dum1
      direction 0.000000 1.000000 0.000000
      length 18.382958
      axis 0.0 0.0 0.0 xyz
   end
   begin
      id 6
      name Spine_dum2
      direction 0.000000 1.000000 0.000000
      length 12.828261
      axis 0.0 0.0 0.0 xyz
   end
   begin
      id 7
      name Spine_dum3
      direction 0.000000 1.000000 0.000000
      length 12.828261
      axis 0.0 0.0 0.0 xyz
   end
   begin
      id 8
      name Head
      direction 0.000000 1.000000 0.000000
      length 4.527550
      axis 0.0 0.0 0.0 xyz
      dof rx ry rz
   end
   begin
      id 9
      name LeftShoulder
      direction 1.000000 0.000000 0.000000
      length 7.748055
      axis 0.0 0.0 -90.0 xyz
      dof rx ry rz
   end
   begin
      id 10
      name LeftArm
      direction 1.000000 0.000000 0.000000
      length 10.635614
      axis 0.0 0.0 -90.0 xyz
      dof rx ry rz
   end
   begin
      id 11
      name LeftForeArm
      direction 1.000000 0.000000 0.000000
      length 8.346755
      axis 0.0 0.0 -90.0 xyz
      dof ry rz rx
   end
   begin
      id 12
      name LeftHand
      direction 0.000000 0.000000 0.000000
      length 0.000000
      axis 0.0 0.0 -90.0 xyz
      dof rx ry rz
   end
   begin
      id 13
      name LeftHand_dum1
      direction 0.000000 0.000000 0.000000
      length 0.000000
      axis 0.0 0.0 -90.0 xyz
   end
   begin
      id 14
      name LeftHand_dum2
      direction 1.000000 0.000000 0.000000
      length 3.937000
      axis 0.0 0.0 -90.0 xyz
   end
   begin
      id 15
      name LeftHandThumb1
      direction 0.000000 0.000000 1.000000
      length 3.937000
      axis 0.0 0.0 -90.0 xyz
      dof rx rz ry
   end
   begin
      id 16
      name RightShoulder
      direction -1.000000 0.000000 0.000000
      length 7.748055
      axis 0.0 0.0 90.0 xyz
      dof rx ry rz
   end
   begin
      id 17
      name RightArm
      direction -1.000000 0.000000 0.000000
      length 10.635614
      axis 0.0 0.0 90.0 xyz
      dof rx ry rz
   end
   begin
      id 18
      name RightForeArm
      direction -1.000000 0.000000 0.000000
      length 8.346755
      axis 0.0 0.0 90.0 xyz
      dof ry rz rx
   end
   begin
      id 19
      name RightHand
      direction 0.000000 0.000000 0.000000
      length 0.000000
      axis 0.0 0.0 90.0 xyz
      dof rx ry rz
   end
   begin
      id 20
      name RightHand_dum1
      direction 0.000000 0.000000 0.000000
      length 0.000000
      axis 0.0 0.0 90.0 xyz
   end
   begin
      id 21
      name RightHand_dum2
      direction -1.000000 0.000000 0.000000
      length 3.937000
      axis 0.0 0.0 90.0 xyz
   end
   begin
      id 22
      name RightHandThumb1
      direction 0.000000 0.000000 1.000000
      length 3.937000
      axis 0.0 0.0 90.0 xyz
      dof rx rz ry
   end
   begin
      id 23
      name LeftUpLeg
      direction 0.000000 -1.000000 0.000000
      length 15.713025
      axis 0.0 0.0 0.0 xyz
      dof rx ry rz
   end
   begin
      id 24
      name LeftLeg
      direction 0.000000 -1.000000 0.000000
      length 14.435119
      axis 0.0 0.0 0.0 xyz
      dof rx ry rz
   end
   begin
      id 25
      name LeftFoot
      direction 0.000000 -0.258819 0.965926
      length 4.938895
      axis 15.0 0.0 0.0 xyz
      dof rx ry rz
   end
   begin
      id 26
      name LeftToeBase
      direction 0.000000 0.000000 1.000000
      length 2.952750
      axis 0.0 0.0 0.0 xyz
      dof rx ry rz
   end
   begin
      id 27
      name RightUpLeg
      direction 0.000000 -1.000000 0.000000
      length 15.713025
      axis 0.0 0.0 0.0 xyz
      dof rx ry rz
   end
   begin
      id 28
      name RightLeg
      direction 0.000000 -1.000000 0.000000
      length 14.435119
      axis 0.0 0.0 0.0 xyz
      dof rx ry rz
   end
   begin
      id 29
      name RightFoot
      direction 0.000000 -0.258819 0.965926
      length 4.938895
      axis 15.0 0.0 0.0 xyz
      dof rx ry rz
   end
   begin
      id 30
      name RightToeBase
      direction 0.000000 0.000000 1.000000
      length 2.952750
      axis 0.0 0.0 0.0 xyz
      dof rx ry rz
   end
:hierarchy
   begin
      root Spine_dum LeftUpLeg_dum RightUpLeg_dum
      Spine_dum Spine
      LeftUpLeg_dum LeftUpLeg
      RightUpLeg_dum RightUpLeg
      Spine Spine_dum1 Spine_dum2 Spine_dum3
      Spine_dum1 Head
      Spine_dum2 LeftShoulder
      Spine_dum3 RightShoulder
      LeftShoulder LeftArm
      LeftArm LeftForeArm
      LeftForeArm LeftHand
      LeftHand LeftHand_dum1 LeftHand_dum2
      LeftHand_dum1 LeftHandThumb1
      RightShoulder RightArm
      RightArm RightForeArm
      RightForeArm RightHand
      RightHand RightHand_dum1 RightHand_dum2
      RightHand_dum1 RightHandThumb1
      LeftUpLeg LeftLeg
      LeftLeg LeftFoot
      LeftFoot LeftToeBase
      RightUpLeg RightLeg
      RightLeg RightFoot
      RightFoot RightToeBase
   end

# File created by Blade
# Date/Time:  Mon Sep 22 21:09:19 2014
# Frame Rate: 120.000 fps
#------------------------------------------------------
:FULLY-SPECIFIED
:DEGREES
1580
root -4.487588 32.787804 -5.431763 17.170426 40.068800 -22.331869
Spine -31.793676 -1.099749 19.317552
Head 5.227767 8.912003 12.071125
LeftShoulder -3.600038 42.044349 24.488119
LeftArm 88.436073 27.637617 -37.215436
LeftForeArm -36.528516 0.000000 73.533017
LeftHand -20.692324 -0.000000 -7.767930
LeftHandThumb1 -26.253704 0.000000 33.147579
RightShoulder -6.458871 -49.546761 -16.489246
RightArm 67.261724 -17.035392 50.051666
RightForeArm 60.298588 0.000000 75.578950
RightHand 3.136143 -0.000000 20.341884
RightHandThumb1 -24.326973 -0.000000 -32.862282
LeftUpLeg -43.234398 12.413343 3.139517
LeftLeg 22.693228 -0.000000 -0.000000
LeftFoot -12.118957 23.385987 9.880526
LeftToeBase 2.434212 -0.000000 -0.000000
RightUpLeg -154.654141 4.584831 13.978113
RightLeg 103.963746 -0.000000 -0.000000
RightFoot 41.100292 -18.902952 9.894601
RightToeBase 48.250218 -0.000000 -0.000000
1581
root -4.513039 32.793564 -5.409977 17.122414 39.912862 -22.219987
Spine -31.712488 -1.152658 18.999331
Head 5.391359 8.761438 12.254546
LeftShoulder -3.605525 42.030730 24.541157
LeftArm 88.478709 27.685258 -37.146824
LeftForeArm -36.599941 -0.000000 73.530448
LeftHand -20.761434 0.000000 -7.659983
LeftHandThumb1 -26.253704 0.000000 33.147579
RightShoulder -6.401148 -49.548353 -16.532519
RightArm 67.253420 -17.063130 50.017601
RightForeArm 60.309048 -0.000000 75.478552
RightHand 3.166678 0.000000 20.490143
RightHandThumb1 -24.326973 -0.000000 -32.862282
LeftUpLeg -42.993448 12.168148 3.367276
LeftLeg 22.729058 -0.000000 -0.000000
LeftFoot -12.579529 23.278183 9.361836
LeftToeBase 2.637004 -0.000000 -0.000000
RightUpLeg -154.591340 4.559824 13.754890
RightLeg 103.954395 -0.000000 -0.000000
RightFoot 41.079814 -18.942506 9.728266
RightToeBase 48.244803 -0.000000 -0.000000
1582
root -4.530092 32.793899 -5.386449 16.955490 39.728790 -22.106187
Spine -31.510633 -1.204684 18.686346
Head 5.548669 8.568655 12.369158
LeftShoulder -3.637432 41.996403 24.548110
LeftArm 88.511877 27.754928 -37.086621
LeftForeArm -36.547877 -0.000000 73.534046
LeftHand -20.881923 -0.000000 -7.464017
LeftHandThumb1 -26.253704 0.000000 33.147579
RightShoulder -6.298476 -49.584300 -16.620737
RightArm 67.260125 -17.060778 49.945298
RightForeArm 60.417150 -0.000000 75.377269
RightHand 3.145122 -0.000000 20.641471
RightHandThumb1 -24.326973 -0.000000 -32.862282
LeftUpLeg -42.636829 11.958749 3.588875
LeftLeg 22.817838 -0.000000 -0.000000
LeftFoot -13.072977 22.959300 8.942801
LeftToeBase 2.648113 -0.000000 -0.000000
RightUpLeg -154.423906 4.523517 13.578118
RightLeg 103.946053 -0.000000 -0.000000
RightFoot 40.984795 -19.024158 9.639082
RightToeBase 48.321718 -0.000000 -0.000000
1583
root -4.542817 32.791089 -5.365228 16.735611 39.591604 -21.998795
Spine -31.255192 -1.265153 18.396239
Head 5.651304 8.343925 12.391197
LeftShoulder -3.653687 42.007638 24.527834
LeftArm 88.577347 27.762592 -37.039864
LeftForeArm -36.360176 0.000000 73.508054
LeftHand -20.964453 -0.000000 -7.564494
LeftHandThumb1 -26.253704 0.000000 33.147579
RightShoulder -6.257789 -49.568342 -16.667490
RightArm 67.202305 -17.093558 49.880245
RightForeArm 60.417493 -0.000000 75.330088
RightHand 3.212916 -0.000000 20.663905
RightHandThumb1 -24.326973 -0.000000 -32.862282
LeftUpLeg -42.269234 11.689419 3.837002
LeftLeg 22.962288 -0.000000 -0.000000
LeftFoot -13.717380 22.152661 8.504078
LeftToeBase 2.574403 -0.000000 -0.000000
RightUpLeg -154.221464 4.450211 13.452875
RightLeg 103.919745 -0.000000 -0.000000
RightFoot 40.939925 -19.074478 9.355735
RightToeBase 48.219469 -0.000000 -0.000000
1584
root -4.553814 32.787529 -5.349674 16.615436 39.494918 -21.892549
Spine -31.105476 -1.296945 18.142763
Head 5.728307 8.131379 12.310420
LeftShoulder -3.656096 42.004326 24.485053
LeftArm 88.618740 27.780259 -37.003234
LeftForeArm -36.243690 -0.000000 73.496866
LeftHand -21.007591 -0.000000 -7.546951
LeftHandThumb1 -26.253704 0.000000 33.147579
RightShoulder -6.239492 -49.612745 -16.757260
RightArm 67.297824 -17.113002 49.695153
RightForeArm 60.181042 -0.000000 75.217150
RightHand 3.234201 -0.000000 20.746892
RightHandThumb1 -24.326973 -0.000000 -32.862282
LeftUpLeg -42.042620 11.287014 4.125773
LeftLeg 23.212466 -0.000000 -0.000000
LeftFoot -14.791243 20.797162 7.542817
LeftToeBase 2.436479 -0.000000 -0.000000
RightUpLeg -154.117467 4.340487 13.333344
RightLeg 103.861426 -0.000000 -0.000000
RightFoot 40.849963 -19.221918 9.303995
RightToeBase 48.141154 -0.000000 -0.000000
1585
root -4.558041 32.778689 -5.333859 16.455376 39.431873 -21.695805
Spine -30.853285 -1.376424 17.823969
Head 5.740145 7.924560 12.203121
LeftShoulder -3.695498 41.967849 24.379452
LeftArm 88.711002 27.800576 -36.901458
LeftForeArm -36.296266 -0.000000 73.467863
LeftHand -21.064809 -0.000000 -7.381857
LeftHandThumb1 -26.253704 0.000000 33.147579
RightShoulder -6.271469 -49.626612 -16.781411
RightArm 67.258171 -17.087172 49.714135
RightForeArm 60.525892 -0.000000 75.085664
RightHand 3.316774 -0.000000 20.915607
RightHandThumb1 -24.326973 -0.000000 -32.862282
LeftUpLeg -41.711379 10.744125 4.402806
LeftLeg 23.429833 -0.000000 -0.000000
LeftFoot -16.094491 19.056338 6.493402
LeftToeBase 2.274001 -0.000000 -0.000000
RightUpLeg -153.942022 4.190347 13.207994
RightLeg 103.784201 -0.000000 -0.000000
RightFoot 40.836739 -19.158065 8.927042
RightToeBase 48.163972 -0.000000 -0.000000
1586
root -4.555054 32.768344 -5.321928 16.298449 39.419949 -21.534540
Spine -30.635397 -1.468383 17.594416
Head 5.722839 7.682648 11.961418
LeftShoulder -3.724439 41.936519 24.250384
LeftArm 88.788230 27.840861 -36.836861
LeftForeArm -36.263808 -0.000000 73.445206
LeftHand -21.143598 -0.000000 -7.239708
LeftHandThumb1 -26.253704 0.000000 33.147579
RightShoulder -6.275989 -49.639405 -16.847786
RightArm 67.252282 -17.086974 49.630087
RightForeArm 60.593944 -0.000000 74.992501
RightHand 3.410359 -0.000000 20.941069
RightHandThumb1 -24.326973 -0.000000 -32.862282
LeftUpLeg -41.387362 9.974259 4.803149
LeftLeg 23.637579 -0.000000 -0.000000
LeftFoot -17.140877 17.239515 5.100097
LeftToeBase 1.579052 -0.000000 -0.000000
RightUpLeg -153.795483 3.995591 13.171814
RightLeg 103.710967 -0.000000 -0.000000
RightFoot 40.752162 -19.142235 8.813965
RightToeBase 48.221486 -0.000000 -0.000000
1587
root -4.551360 32.756511 -5.317520 16.170046 39.396392 -21.392257
Spine -30.424536 -1.517913 17.395708
Head 5.636968 7.524679 11.696744
LeftShoulder -3.764795 41.938576 24.124403
LeftArm 88.895469 27.856197 -36.827347
LeftForeArm -36.020017 0.000000 73.391054
LeftHand -21.223534 -0.000000 -7.257028
LeftHandThumb1 -26.253704 0.000000 33.147579
RightShoulder -6.277075 -49.639101 -16.917772
RightArm 67.230177 -17.051473 49.582939
RightForeArm 60.720523 -0.000000 74.883622
RightHand 3.441662 -0.000000 21.034490
RightHandThumb1 -24.326973 -0.000000 -32.862282
LeftUpLeg -41.118402 9.162598 5.246075
LeftLeg 23.833421 -0.000000 -0.000000
LeftFoot -17.987274 15.619633 3.730393
LeftToeBase 0.634504 -0.000000 -0.000000
RightUpLeg -153.649021 3.852724 13.176132
RightLeg 103.568187 -0.000000 -0.000000
RightFoot 40.752227 -19.081569 8.598671
RightToeBase 48.165937 -0.000000 -0.000000
1588
root -4.546799 32.745078 -5.315821 16.185752 39.384259 -21.218838
Spine -30.343641 -1.522574 17.178078
Head 5.532675 7.302840 11.374565
LeftShoulder -3.739730 41.949494 24.017417
LeftArm 88.980529 27.858434 -36.819328
LeftForeArm -35.860635 -0.000000 73.392762
LeftHand -21.455115 -0.000000 -7.076192
LeftHandThumb1 -26.253704 0.000000 33.147579
RightShoulder -6.291274 -49.631698 -16.991969
RightArm 67.189257 -17.059016 49.566214
RightForeArm 60.852197 -0.000000 74.758007
RightHand 3.534991 -0.000000 21.135429
RightHandThumb1 -24.326973 -0.000000 -32.862282
LeftUpLeg -40.961343 8.318616 5.668454
LeftLeg 23.973105 -0.000000 -0.000000
LeftFoot -18.366764 14.383386 2.356826
LeftToeBase -0.175699 -0.000000 0.000000
RightUpLeg -153.605666 3.727901 13.152986
RightLeg 103.387796 -0.000000 -0.000000
RightFoot 40.751815 -19.091687 8.442483
RightToeBase 48.096717 -0.000000 -0.000000
1589
root -4.542036 32.733325 -5.317804 16.290122 39.355723 -21.014735
Spine -30.322407 -1.513181 16.951398
Head 5.427704 7.149823 11.071455
LeftShoulder -3.734393 42.032157 23.911153
LeftArm 89.130826 27.807060 -36.761352
LeftForeArm -35.905846 -0.000000 73.389492
LeftHand -21.578596 -0.000000 -6.715470
LeftHandThumb1 -26.253704 0.000000 33.147579
RightShoulder -6.274708 -49.615724 -17.075730
RightArm 67.149407 -17.063188 49.469227
RightForeArm 61.068167 -0.000000 74.668550
RightHand 3.685354 0.000000 21.098910
RightHandThumb1 -24.326973 -0.000000 -32.862282
LeftUpLeg -40.884307 7.602819 5.993435
LeftLeg 24.015346 -0.000000 -0.000000
LeftFoot -18.273097 13.491756 1.185397
LeftToeBase -1.278296 -0.000000 0.000000
RightUpLeg -153.608878 3.651499 13.108876
RightLeg 103.161568 -0.000000 -0.000000
RightFoot 40.780773 -19.222243 8.388157
RightToeBase 48.228989 -0.000000 -0.000000
1590
root -4.531740 32.718844 -5.315996 16.396469 39.273756 -20.770014
Spine -30.283275 -1.505230 16.692448
Head 5.345826 7.051158 10.783039
LeftShoulder -3.721670 42.040572 23.885694
LeftArm 89.186294 27.888214 -36.843883
LeftForeArm -35.798396 -0.000000 73.341702
LeftHand -21.734611 -0.000000 -6.691966
LeftHandThumb1 -26.253704 0.000000 33.147579
RightShoulder -6.210037 -49.663498 -17.160565
RightArm 67.154197 -17.021522 49.366244
RightForeArm 61.209694 -0.000000 74.563769
RightHand 3.761451 -0.000000 21.169573
RightHandThumb1 -24.326973 -0.000000 -32.862282
LeftUpLeg -40.796155 7.283360 6.070794
LeftLeg 24.047697 -0.000000 -0.000000
LeftFoot -18.130980 12.751843 0.129945
LeftToeBase -2.077512 -0.000000 0.000000
RightUpLeg -153.575521 3.625796 13.031511
RightLeg 102.953663 -0.000000 -0.000000
RightFoot 40.774072 -19.357187 8.295794
RightToeBase 48.179252 -0.000000 -0.000000
1591
root -4.520113 32.702104 -5.310997 16.507289 39.176359 -20.490207
Spine -30.233263 -1.506897 16.396560
Head 5.276476 6.908875 10.526729
LeftShoulder -3.678266 42.067686 23.956931
LeftArm 89.244080 28.011112 -37.098895
LeftForeArm -35.517204 -0.000000 73.188041
LeftHand -22.086012 0.000000 -7.003590
LeftHandThumb1 -26.253704 0.000000 33.147579
RightShoulder -6.092321 -49.697624 -17.252827
RightArm 67.099700 -16.978489 49.324639
RightForeArm 61.349255 0.000000 74.463187
RightHand 3.758000 0.000000 21.241977
RightHandThumb1 -24.326973 -0.000000 -32.862282
LeftUpLeg -40.725205 7.307168 5.935433
LeftLeg 24.099221 -0.000000 -0.000000
LeftFoot -17.648784 12.467268 -0.217307
LeftToeBase -2.791612 -0.000000 0.000000
RightUpLeg -153.523685 3.618029 12.931567
RightLeg 102.742970 -0.000000 -0.000000
RightFoot 40.821197 -19.352837 8.074766
RightToeBase 48.015153 -0.000000 -0.000000
1592
root -4.512492 32.687007 -5.303813 16.639469 39.072094 -20.239854
Spine -30.221123 -1.510058 16.122195
Head 5.218025 6.764890 10.308135
LeftShoulder -3.667007 42.104086 23.974495
LeftArm 89.317164 28.040646 -37.143966
LeftForeArm -35.393997 -0.000000 73.115792
LeftHand -22.221243 -0.000000 -7.005589
LeftHandThumb1 -26.253704 0.000000 33.147579
RightShoulder -5.956927 -49.752296 -17.328062
RightArm 67.062819 -16.918511 49.297886
RightForeArm 61.376188 0.000000 74.384437
RightHand 3.734992 -0.000000 21.290469
RightHandThumb1 -24.326973 -0.000000 -32.862282
LeftUpLeg -40.740461 7.682626 5.624426
LeftLeg 24.163086 -0.000000 -0.000000
LeftFoot -16.887615 12.363290 0.142270
LeftToeBase -3.345078 -0.000000 0.000000
RightUpLeg -153.489441 3.669833 12.829689
RightLeg 102.507583 -0.000000 -0.000000
RightFoot 40.824452 -19.602656 7.898772
RightToeBase 48.090822 -0.000000 -0.000000
